HIERARCHY
ROOT hip
{
  OFFSET 0 0 0
  CHANNELS 6 Xposition Yposition Zposition Zrotation Yrotation Xrotation
  JOINT abdomen
  {
    OFFSET 0 20.6881 -0.73152
    CHANNELS 3 Zrotation Xrotation Yrotation
    JOINT chest
    {
      OFFSET 0 11.7043 -0.48768
      CHANNELS 3 Zrotation Xrotation Yrotation
      JOINT neck
      {
        OFFSET 0 22.1894 -2.19456
        CHANNELS 3 Zrotation Xrotation Yrotation
        JOINT head
        {
          OFFSET -0.24384 7.07133 1.2192
          CHANNELS 3 Zrotation Xrotation Yrotation
          JOINT leftEye
          {
            OFFSET 4.14528 8.04674 8.04672
            CHANNELS 3 Zrotation Xrotation Yrotation
            End Site
            {
              OFFSET 1 0 0
            }
          }
          JOINT rightEye
          {
            OFFSET -3.6576 8.04674 8.04672
            CHANNELS 3 Zrotation Xrotation Yrotation
            End Site
            {
              OFFSET 1 0 0
            }
          }
        }
      }
      JOINT rCollar
      {
        OFFSET -2.68224 19.2634 -4.8768
        CHANNELS 3 Zrotation Xrotation Yrotation
        JOINT rShldr
        {
          OFFSET -8.77824 -1.95073 1.46304
          CHANNELS 3 Zrotation Xrotation Yrotation
          JOINT rForeArm
          {
            OFFSET -28.1742 -1.7115 0.48768
            CHANNELS 3 Zrotation Xrotation Yrotation
            JOINT rHand
            {
              OFFSET -22.5879 0.773209 7.07136
              CHANNELS 3 Zrotation Xrotation Yrotation
              JOINT rThumb1
              {
                OFFSET -1.2192 -0.487915 3.41376
                CHANNELS 3 Zrotation Xrotation Yrotation
                JOINT rThumb2
                {
                  OFFSET -3.37035 -0.52449 3.41376
                  CHANNELS 3 Zrotation Xrotation Yrotation
                  End Site
                  {
                    OFFSET -1.78271 -1.18214 1.43049
                  }
                }
              }
              JOINT rIndex1
              {
                OFFSET -7.75947 0.938293 5.60832
                CHANNELS 3 Zrotation Xrotation Yrotation
                JOINT rIndex2
                {
                  OFFSET -2.54057 -0.884171 1.56538
                  CHANNELS 3 Zrotation Xrotation Yrotation
                  End Site
                  {
                    OFFSET -1.62519 -0.234802 1.16502
                  }
                }
              }
              JOINT rMid1
              {
                OFFSET -8.24714 1.18213 3.41376
                CHANNELS 3 Zrotation Xrotation Yrotation
                JOINT rMid2
                {
                  OFFSET -3.10165 -0.590103 1.0647
                  CHANNELS 3 Zrotation Xrotation Yrotation
                  End Site
                  {
                    OFFSET -2.48547 -0.328903 0.83742
                  }
                }
              }
              JOINT rRing1
              {
                OFFSET -8.82822 0.546677 1.51678
                CHANNELS 3 Zrotation Xrotation Yrotation
                JOINT rRing2
                {
                  OFFSET -2.60934 -0.819778 -0.0198488
                  CHANNELS 3 Zrotation Xrotation Yrotation
                  End Site
                  {
                    OFFSET -2.33842 -0.294052 0.168128
                  }
                }
              }
              JOINT rPinky1
              {
                OFFSET -8.27202 -0.0477905 -0.4584
                CHANNELS 3 Zrotation Xrotation Yrotation
                JOINT rPinky2
                {
                  OFFSET -1.82734 -0.647385 -0.700984
                  CHANNELS 3 Zrotation Xrotation Yrotation
                  End Site
                  {
                    OFFSET -1.69225 -0.51767 -0.607171
                  }
                }
              }
            }
          }
        }
      }
      JOINT lCollar
      {
        OFFSET 2.68224 19.2634 -4.8768
        CHANNELS 3 Zrotation Xrotation Yrotation
        JOINT lShldr
        {
          OFFSET 8.77824 -1.95073 1.46304
          CHANNELS 3 Zrotation Xrotation Yrotation
          JOINT lForeArm
          {
            OFFSET 28.1742 -1.7115 0.48768
            CHANNELS 3 Zrotation Xrotation Yrotation
            JOINT lHand
            {
              OFFSET 22.5879 0.773209 7.07136
              CHANNELS 3 Zrotation Xrotation Yrotation
              JOINT lThumb1
              {
                OFFSET 1.2192 -0.487915 3.41376
                CHANNELS 3 Zrotation Xrotation Yrotation
                JOINT lThumb2
                {
                  OFFSET 3.37035 -0.52449 3.41376
                  CHANNELS 3 Zrotation Xrotation Yrotation
                  End Site
                  {
                    OFFSET 1.78271 -1.18214 1.43049
                  }
                }
              }
              JOINT lIndex1
              {
                OFFSET 7.75947 0.938293 5.60832
                CHANNELS 3 Zrotation Xrotation Yrotation
                JOINT lIndex2
                {
                  OFFSET 2.54057 -0.884171 1.56538
                  CHANNELS 3 Zrotation Xrotation Yrotation
                  End Site
                  {
                    OFFSET 1.62519 -0.234802 1.16502
                  }
                }
              }
              JOINT lMid1
              {
                OFFSET 8.24714 1.18213 3.41376
                CHANNELS 3 Zrotation Xrotation Yrotation
                JOINT lMid2
                {
                  OFFSET 3.10165 -0.590103 1.0647
                  CHANNELS 3 Zrotation Xrotation Yrotation
                  End Site
                  {
                    OFFSET 2.48547 -0.328903 0.83742
                  }
                }
              }
              JOINT lRing1
              {
                OFFSET 8.82822 0.546677 1.51678
                CHANNELS 3 Zrotation Xrotation Yrotation
                JOINT lRing2
                {
                  OFFSET 2.60934 -0.819778 -0.0198488
                  CHANNELS 3 Zrotation Xrotation Yrotation
                  End Site
                  {
                    OFFSET 2.33842 -0.294052 0.168128
                  }
                }
              }
              JOINT lPinky1
              {
                OFFSET 8.27202 -0.0477905 -0.4584
                CHANNELS 3 Zrotation Xrotation Yrotation
                JOINT lPinky2
                {
                  OFFSET 1.82734 -0.647385 -0.700984
                  CHANNELS 3 Zrotation Xrotation Yrotation
                  End Site
                  {
                    OFFSET 1.69225 -0.51767 -0.607171
                  }
                }
              }
            }
          }
        }
      }
    }
  }
  JOINT rButtock
  {
    OFFSET -8.77824 4.35084 1.2192
    CHANNELS 3 Zrotation Xrotation Yrotation
    JOINT rThigh
    {
      OFFSET 0 -1.70687 -2.19456
      CHANNELS 3 Zrotation Xrotation Yrotation
      JOINT rShin
      {
        OFFSET 0 -36.8199 0.73152
        CHANNELS 3 Zrotation Xrotation Yrotation
        JOINT rFoot
        {
          OFFSET 0.73152 -45.1104 -5.12064
          CHANNELS 3 Zrotation Xrotation Yrotation
          End Site
          {
            OFFSET -1.1221 -3.69964 12.103
          }
        }
      }
    }
  }
  JOINT lButtock
  {
    OFFSET 8.77824 4.35084 1.2192
    CHANNELS 3 Zrotation Xrotation Yrotation
    JOINT lThigh
    {
      OFFSET 0 -1.70687 -2.19456
      CHANNELS 3 Zrotation Xrotation Yrotation
      JOINT lShin
      {
        OFFSET 0 -36.8199 0.73152
        CHANNELS 3 Zrotation Xrotation Yrotation
        JOINT lFoot
        {
          OFFSET -0.73152 -45.1104 -5.12064
          CHANNELS 3 Zrotation Xrotation Yrotation
          End Site
          {
            OFFSET 1.1221 -3.69964 12.103
          }
        }
      }
    }
  }
}
MOTION
Frames:	4
Frame Time:	0.03333
0.006380037015026598 35.57415919760848 0.08184973200140647 -2.9910407066345215 6.8866868019104 4.598774433135986 -2.2335779666900635 14.969704627990723 3.7230470180511475 2.755547285079956 -9.736729621887207 1.193642020225525 -5.0575270652771 15.51570987701416 -3.5120222568511963 9.059284210205078 -26.259431838989258 -5.1039347648620605 0.007347350474447012 -0.005502310581505299 -0.006505398079752922 0.00036408964660950005 -0.0138471107929945 -0.007823536172509193 0.00748180877417326 -0.020006416365504265 -0.042466919869184494 46.46457290649414 35.996768951416016 17.74264144897461 -28.16152000427246 -32.16516876220703 62.97041320800781 -1.5796905755996704 -11.140925407409668 -1.6014868021011353 0.02659810334444046 0.012250306084752083 -8.50104188430123e-05 0.0279721487313509 0.024339811876416206 0.01140966359525919 0.015278327278792858 -0.007247322238981724 0.0028943782672286034 7.724848747253418 5.482333660125732 0.39552074670791626 0.005859611090272665 -0.011100764386355877 -0.01644885540008545 2.9438745975494385 0.9638664126396179 0.10135956108570099 -0.014127209782600403 0.014629215933382511 -0.0029107301961630583 10.269694328308105 0.7266998291015625 0.04185914993286133 -0.00865967757999897 -0.0198270995169878 -0.016822880133986473 2.2219626903533936 -0.7219243049621582 -0.21048763394355774 -0.005981673952192068 -0.012348104268312454 -0.0005176178528927267 -52.076778411865234 39.45986557006836 -30.012386322021484 27.512916564941406 -30.422626495361328 -58.792747497558594 1.8775454759597778 -13.54578685760498 1.9290788173675537 0.006013443227857351 0.007757021579891443 -0.002620663261041045 -0.017306724563241005 0.011914052069187164 0.008786004036664963 0.012601770460605621 -0.0030938717536628246 -0.009106669574975967 -7.712374210357666 5.482724666595459 -0.41923776268959045 0.015196342952549458 -0.037687502801418304 -0.000545998103916645 -2.8987936973571777 0.9759345054626465 -0.1344333291053772 -0.012010556645691395 0.008477077819406986 0.015425533056259155 -10.28210163116455 0.7284174561500549 -0.0352492593228817 -0.0025573072489351034 -0.0039492398500442505 -0.015777891501784325 -2.2387354373931885 -0.7468361854553223 0.20703008770942688 -0.03262925148010254 -0.0028701142873615026 0.02410936914384365 -27.57613754272461 -38.911094665527344 -23.309410095214844 -1.657107949256897 65.04145812988281 2.7073655128479004 -4.7980828285217285 -10.536022186279297 -10.41929817199707 -0.0053054834716022015 -0.005820342339575291 0.011334291659295559 33.40043640136719 -37.875083923339844 26.514249801635742 1.9321671724319458 65.99113464355469 -3.083717107772827 4.947322845458984 -10.395251274108887 13.512297630310059
0.02046815595182415 35.57987948103837 0.1685307823039656 -2.913513660430908 6.971851348876953 4.600450038909912 -2.248358726501465 15.080669403076172 3.765875816345215 2.755882978439331 -9.764623641967773 1.230667233467102 -5.110876083374023 15.448824882507324 -3.5042479038238525 9.026142120361328 -26.326873779296875 -5.032350063323975 -0.009905954822897911 0.001175366691313684 -0.006738925818353891 0.007451573386788368 -0.0227055586874485 -0.007904428988695145 -0.0011862261453643441 -0.05113708972930908 -0.07110074162483215 46.20269775390625 36.02819061279297 18.154104232788086 -28.252147674560547 -32.12723922729492 63.02030944824219 -1.545087456703186 -11.251517295837402 -1.6133211851119995 0.030243664979934692 0.02916122041642666 0.017208920791745186 0.06753776967525482 0.04086869955062866 -0.007861582562327385 0.032805997878313065 -0.017797106876969337 -0.020163170993328094 7.70333194732666 5.475459098815918 0.36700040102005005 0.01845955103635788 -0.008650874719023705 -0.04494265094399452 2.9646542072296143 0.9413356781005859 0.09370482712984085 -0.04633818194270134 0.046569522470235825 -0.014038844034075737 10.249632835388184 0.7464514374732971 0.06565581262111664 -0.009399479255080223 -0.0653315857052803 -0.010814139619469643 2.2184903621673584 -0.7203544974327087 -0.21334940195083618 -0.012863704934716225 -0.008151833899319172 -0.01188502088189125 -51.9151725769043 39.207157135009766 -30.238792419433594 27.49928855895996 -30.294410705566406 -58.58426284790039 1.879413366317749 -13.368295669555664 2.009573459625244 0.027036510407924652 0.019628839567303658 -0.012133768759667873 -0.019417857751250267 0.028175709769129753 0.002037817845121026 0.03881599009037018 0.0159335657954216 -0.002809308236464858 -7.696547985076904 5.493001937866211 -0.4368317127227783 0.035268448293209076 -0.0779995545744896 -0.007016507443040609 -2.885690450668335 0.9636492729187012 -0.14208288490772247 -0.01832890696823597 0.005854858551174402 0.029720328748226166 -10.31530475616455 0.7331814169883728 -0.03912728652358055 0.012328234501183033 -0.0001275293034268543 -0.03139610216021538 -2.247032880783081 -0.745760977268219 0.2028280794620514 -0.056767381727695465 -0.0003565912484191358 0.042575541883707047 -27.635074615478516 -39.03896713256836 -23.33839225769043 -1.6408977508544922 65.08895111083984 2.6939401626586914 -4.8163299560546875 -10.450912475585938 -10.494150161743164 -0.030787542462348938 -0.009156507439911366 0.012431898154318333 33.45017623901367 -37.88821029663086 26.662973403930664 2.0249152183532715 66.04791259765625 -3.1422085762023926 4.980164527893066 -10.384603500366211 13.417590141296387
-0.12274202120141993 27.80808896978412 0.6876751049832404 -14.91064739227295 -28.204421997070312 19.339752197265625 8.375319480895996 8.476759910583496 3.8240067958831787 3.240382194519043 -8.524369239807129 1.2272405624389648 -0.7169867753982544 11.699389457702637 5.710734844207764 5.029010772705078 -27.407325744628906 13.748588562011719 -0.07901822030544281 -0.054574690759181976 -0.08305877447128296 -0.022556122392416 0.040372781455516815 0.027182675898075104 -0.09826842695474625 -0.21212038397789001 0.26330211758613586 107.18633270263672 50.29316329956055 -52.14785385131836 -28.521127700805664 -41.331626892089844 86.27737426757812 -8.74937629699707 -60.46810531616211 -14.284802436828613 0.05733245238661766 -0.2342907041311264 0.060519132763147354 0.09665931761264801 0.051722146570682526 0.05749654397368431 0.017480939626693726 -0.2970491349697113 -0.0948997363448143 7.701271057128906 5.656584739685059 0.09146817773580551 -0.0610029436647892 0.17945265769958496 -0.22152090072631836 3.0350818634033203 0.88570237159729 0.11655399948358536 -0.2021874040365219 0.36797797679901123 0.22128887474536896 10.239753723144531 0.7575360536575317 0.10067503154277802 -0.07946376502513885 -0.27447718381881714 -0.1512194126844406 1.9339649677276611 -0.7088531851768494 -0.22710487246513367 -0.19248037040233612 -0.33472588658332825 -0.35019776225090027 -55.19559097290039 -16.778884887695312 -73.05781555175781 8.25780200958252 -3.596735954284668 -14.921152114868164 7.3686909675598145 58.29384994506836 -12.61813735961914 0.01857009157538414 -0.018325306475162506 -0.011903226375579834 -0.08431271463632584 -0.07840823382139206 0.19986680150032043 0.2236870527267456 -0.061056870967149734 -0.07881119847297668 -7.648329257965088 5.446990489959717 -0.5291820168495178 0.20813104510307312 0.2382977157831192 -0.11228950321674347 -3.065444231033325 0.794390857219696 -0.3129066228866577 0.26082855463027954 -0.11444847285747528 0.2645709812641144 -10.266776084899902 0.6867871880531311 -0.026474257931113243 0.10034660249948502 0.15942668914794922 -0.0857984721660614 -2.180047035217285 -0.7429378032684326 0.1218523308634758 -0.29163482785224915 0.14621612429618835 0.3496454358100891 -14.676793098449707 10.793363571166992 -1.4000070095062256 0.15751764178276062 28.09255599975586 2.1511127948760986 -5.041325092315674 -7.874287128448486 -31.374629974365234 -0.05827312171459198 -0.18535496294498444 -0.01289849542081356 92.45660400390625 -54.74185562133789 88.72151947021484 33.079002380371094 87.97782897949219 -33.18707275390625 4.467655658721924 -4.299882411956787 13.46717357635498
0.23438060941163208 27.99663975691691 1.2594194615127239 -13.564359664916992 -27.088415145874023 20.270841598510742 5.669458866119385 6.459436416625977 4.810815334320068 4.0464277267456055 -8.147876739501953 1.0404951572418213 0.11760926246643066 11.789087295532227 5.414483070373535 4.280317306518555 -27.7645320892334 12.732275009155273 -0.1425924152135849 0.08597917854785919 0.09269439429044724 -0.06995579600334167 0.038443755358457565 0.2843676209449768 0.07228872179985046 -0.20744873583316803 0.05230511724948883 102.89176940917969 46.639312744140625 -48.72196578979492 -27.6026668548584 -40.6433219909668 85.68649291992188 -9.318263053894043 -61.54998779296875 -15.318799018859863 0.13046769797801971 -0.2163768708705902 0.29340240359306335 -0.08251085877418518 0.06258811056613922 0.04202757403254509 0.15758980810642242 -0.05167738348245621 -0.29803672432899475 7.607936382293701 5.396825790405273 0.19040918350219727 -0.06832319498062134 0.06079154834151268 -0.3741700053215027 3.0766310691833496 0.6807264685630798 -0.07284293323755264 -0.25338730216026306 0.22330628335475922 0.20140980184078217 10.421249389648438 0.711941659450531 0.3173876702785492 0.04100283980369568 -0.2126709371805191 -0.001222491730004549 1.945931077003479 -0.481783002614975 -0.09890992194414139 -0.017661603167653084 -0.10898689925670624 -0.0662243515253067 -54.56943130493164 -19.876440048217773 -77.4462661743164 8.842446327209473 -3.872728109359741 -16.77231216430664 5.604464054107666 55.87989044189453 -10.516883850097656 -0.166745126247406 -0.012982991524040699 -0.1925874650478363 -0.11702475696802139 0.03646116331219673 -0.05136064067482948 0.49950551986694336 0.011103448458015919 0.20193980634212494 -7.589836597442627 5.620694637298584 -0.3452203869819641 0.14783893525600433 -0.06420986354351044 -0.009493387304246426 -2.938502073287964 0.6925695538520813 -0.2655637562274933 0.02015845850110054 0.10771738737821579 0.344706267118454 -10.32233715057373 0.8961110711097717 0.004073318559676409 0.39640361070632935 0.3024132251739502 -0.15606385469436646 -2.3758702278137207 -0.6652799844741821 0.0932304635643959 0.17453810572624207 0.03183325380086899 0.08125850558280945 -14.627341270446777 10.516328811645508 -0.14418140053749084 0.4343712329864502 28.71752166748047 2.5333738327026367 -3.27854061126709 -7.160491466522217 -31.596303939819336 -0.3534771203994751 -0.17493478953838348 0.14230042695999146 94.18447875976562 -56.280433654785156 91.96244812011719 45.82931137084961 88.15081787109375 -46.25642395019531 5.449006080627441 -4.4874372482299805 19.743715286254883
